<?xml version="1.0" standalone="no"?>
<!DOCTYPE svg PUBLIC "-//W3C//DTD SVG 20010904//EN"
 "http://www.w3.org/TR/2001/REC-SVG-20010904/DTD/svg10.dtd">
<svg version="1.0" xmlns="http://www.w3.org/2000/svg"
 width="500.000000pt" height="500.000000pt" viewBox="0 0 500.000000 500.000000"
 preserveAspectRatio="xMidYMid meet">
<metadata>
Created by potrace 1.14, written by Peter Selinger 2001-2017
</metadata>
<g transform="translate(0.000000,500.000000) scale(0.100000,-0.100000)"
fill="#000000" stroke="none">
<path d="M2605 3716 c-51 -31 -114 -121 -132 -189 -20 -77 -16 -135 12 -195
14 -30 25 -69 25 -88 0 -29 5 -37 35 -51 35 -17 36 -19 33 -67 l-3 -49 -141
-37 c-165 -44 -195 -57 -262 -114 -65 -56 -188 -102 -300 -114 -40 -4 -44 -2
-55 27 -10 27 -16 31 -48 31 -43 0 -116 -54 -136 -101 -12 -29 -17 -31 -113
-48 -30 -6 -98 -20 -150 -31 -150 -33 -160 -35 -160 -18 0 7 -20 34 -45 58
l-46 45 -137 0 c-170 -1 -252 -16 -367 -70 -69 -32 -102 -55 -142 -98 l-53
-56 0 -68 c1 -38 7 -79 14 -93 l14 -24 178 2 c351 6 451 33 620 168 53 42 125
71 211 84 38 5 106 20 152 32 73 19 85 20 95 7 40 -53 114 -63 212 -28 32 11
91 27 130 34 39 8 95 23 125 34 38 15 77 21 134 21 71 0 100 -4 192 -25 51
-12 69 -124 37 -234 -24 -81 -56 -160 -70 -172 -7 -6 -57 -5 -140 2 -202 17
-258 24 -424 59 -177 36 -237 36 -275 0 -14 -13 -25 -28 -25 -34 0 -5 -21 -52
-46 -103 l-45 -93 -157 0 c-86 0 -186 5 -222 10 -167 25 -459 40 -769 39 -179
0 -334 3 -344 6 -11 5 -17 2 -17 -8 0 -22 71 -27 450 -27 238 0 391 -5 495
-16 153 -16 514 -32 573 -25 26 3 31 7 27 21 -3 10 7 41 23 72 16 29 34 69 41
89 19 58 41 71 113 70 52 -1 214 -29 318 -55 39 -10 308 -33 375 -32 l60 1 24
44 c37 68 71 197 70 271 -1 125 -39 151 -234 158 -104 3 -127 1 -172 -17 -28
-11 -75 -23 -105 -27 -29 -4 -82 -18 -118 -31 -40 -15 -87 -25 -123 -26 -57 0
-58 0 -110 56 -31 33 -51 63 -49 74 4 23 83 83 109 83 13 0 25 -10 33 -29 16
-39 51 -43 158 -16 137 34 170 49 244 113 29 24 63 48 77 54 26 10 179 51 256
70 58 14 65 23 65 89 0 58 -1 60 -35 76 -29 14 -35 22 -35 47 0 17 -11 55 -25
84 -43 93 -30 189 40 286 51 72 103 102 159 93 42 -7 112 -77 126 -128 27 -97
-1 -322 -56 -448 -13 -29 -24 -66 -24 -81 0 -47 19 -54 140 -47 l110 7 33 -35
c19 -19 38 -35 44 -35 5 0 59 -50 119 -111 142 -144 238 -200 271 -156 29 36
48 225 29 288 -10 34 9 104 37 130 33 31 112 20 150 -21 25 -28 27 -37 27
-109 0 -50 -5 -89 -15 -108 -9 -17 -16 -59 -16 -94 -2 -109 -62 -205 -161
-255 -74 -37 -118 -33 -213 23 -44 25 -111 62 -150 81 -38 19 -87 48 -108 64
-41 33 -83 33 -89 0 -6 -29 21 -302 32 -322 15 -27 12 -74 -6 -119 -8 -22 -14
-50 -12 -63 4 -27 19 -29 378 -47 118 -6 303 -16 410 -21 107 -6 292 -15 410
-20 118 -6 269 -19 335 -30 66 -11 190 -28 275 -39 85 -11 170 -23 188 -27 26
-5 32 -3 32 10 0 9 -6 16 -12 16 -40 1 -351 42 -453 60 -116 21 -297 33 -645
46 -90 3 -168 8 -172 10 -4 3 -107 9 -230 15 -123 5 -283 12 -356 16 l-134 6
6 31 c17 87 17 122 3 198 -9 46 -18 127 -20 181 -5 109 0 115 56 73 18 -13 61
-38 96 -55 35 -17 69 -35 76 -41 7 -5 52 -31 101 -56 101 -52 129 -53 212 -9
60 32 81 50 118 105 45 67 54 95 54 161 0 33 7 76 15 96 8 19 15 50 15 68 0
18 6 38 14 44 22 18 189 4 256 -22 49 -19 76 -21 250 -22 270 0 328 20 365
124 8 25 15 77 15 120 l0 76 -37 25 c-35 24 -43 25 -182 24 -184 0 -320 -15
-391 -43 -59 -22 -127 -84 -151 -136 -13 -27 -21 -31 -77 -39 -60 -8 -63 -8
-89 19 -35 35 -63 45 -119 45 -52 0 -91 -30 -100 -80 -4 -17 -11 -33 -17 -37
-13 -8 -294 -42 -353 -42 -30 -1 -46 5 -60 20 -35 39 -71 47 -166 36 -48 -5
-94 -7 -103 -3 -21 8 -19 35 9 98 39 88 71 242 70 338 0 116 -14 155 -75 218
-47 48 -54 52 -97 52 -32 0 -60 -8 -87 -24z m1972 -463 c27 -20 28 -24 28
-104 -1 -105 -15 -137 -75 -166 -103 -51 -395 -56 -535 -8 -52 18 -92 24 -158
24 -97 0 -107 3 -107 32 0 16 7 19 44 19 70 0 101 16 122 61 40 89 129 133
297 149 49 5 92 12 95 15 4 4 64 5 134 3 110 -3 131 -7 155 -25z m-1105 -287
c6 -32 -1 -35 -116 -37 -52 -1 -116 -6 -141 -12 -43 -10 -48 -9 -71 15 l-26
25 94 7 c51 4 109 11 128 16 19 4 56 8 81 9 42 1 47 -2 51 -23z m13 -98 c-4
-24 -8 -61 -10 -83 -1 -22 -8 -53 -14 -69 -10 -24 -15 -27 -39 -21 -15 3 -47
19 -72 35 -50 32 -167 146 -158 155 10 10 122 23 212 24 l89 1 -8 -42z m-2332
-160 c26 -27 36 -45 32 -57 -7 -22 18 -35 43 -22 21 10 190 49 360 82 53 10
65 10 72 -2 5 -7 7 -15 5 -17 -8 -8 -117 -33 -205 -48 -109 -17 -198 -55 -252
-106 -54 -52 -191 -115 -278 -129 -41 -6 -163 -12 -272 -13 -227 -1 -218 -5
-218 87 0 56 2 60 49 111 47 48 73 64 203 119 60 26 253 47 358 39 60 -4 68
-8 103 -44z"/>
<path d="M0 1816 c0 -18 26 -23 165 -31 55 -3 118 -10 140 -15 22 -4 69 -11
105 -14 115 -11 353 -36 433 -46 46 -6 363 -8 760 -6 757 5 833 7 1015 30 29
4 89 2 132 -4 44 -6 86 -7 93 -3 16 10 307 5 533 -9 135 -8 203 -8 270 0 58 8
116 9 167 3 74 -8 221 -3 497 19 151 12 226 12 335 -2 98 -12 124 -13 263 -10
85 2 92 3 92 22 0 20 -4 21 -102 15 -57 -4 -108 -8 -114 -10 -6 -2 -56 3 -110
11 -128 18 -216 17 -465 -1 -113 -9 -285 -15 -384 -13 -99 2 -223 -1 -275 -6
-70 -6 -134 -4 -245 8 -170 18 -728 15 -845 -4 -93 -16 -1367 -24 -1540 -11
-215 17 -346 30 -475 47 -66 8 -165 20 -220 25 -55 4 -128 11 -162 15 -53 5
-63 3 -63 -10z"/>
<path d="M0 15 c0 -13 284 -15 2500 -15 2216 0 2500 2 2500 15 0 13 -284 15
-2500 15 -2216 0 -2500 -2 -2500 -15z"/>
</g>
</svg>
